# xmcd
#
# Track frame offsets:
#	150
#	17742
#	33357
#	47752
#	65045
#	81170
#	94022
#	108697
#	119655
#	135430
#	149650
#	161892
#	178725
#	191420
#	206015
#	207605
#	209245
#	210905
#	212527
#	214252
#	215900
#	217497
#	219087
#	220717
#
# Disc length: 2949
#
# Revision: 1
# Processed by: cddbd v1.5.1PL0 Copyright (c) Steve Scherf et al.
# Submitted via: VisiTrax 2.9.5.180 - For more info visit www.synapsa.com
# Normalized: r0:DSETVAR1
#
DISCID=980b8318
DTITLE=Various Artist - CDX 123 November 1995
DYEAR=1995
DGENRE=
TTITLE0=Shenandoah - Always have alwys will
TTITLE1=Tracy Byrd - Heaven in my womans eyes
TTITLE2=George Strait - I know she still loves me
TTITLE3=Rob Crosby - Lady's man
TTITLE4=Smokin' Armadillos - Let your heart lead your mind
TTITLE5=John Anderson - Paradise
TTITLE6=Lari White - Ready, willing and able
TTITLE7=Jeff Foxworthy - Redneck 12 days of christmas
TTITLE8=Ty England - Smoke in her eyes
TTITLE9=Fox Brothers - Squares
TTITLE10=Garth Brooks - The fever
TTITLE11=Philip Calypool - The strength of a woman
TTITLE12=Daryle Singletary - Too much fun
TTITLE13=Brett James - Worth the fall
TTITLE14=Confederate Railroad - Sound bites
TTITLE15=Confederate Railroad - Sound bites
TTITLE16=Confederate Railroad - Sound bites
TTITLE17=Confederate Railroad - Sound bites
TTITLE18=Confederate Railroad - Sound bites
TTITLE19=Confederate Railroad - Sound bites
TTITLE20=Confederate Railroad - Sound bites
TTITLE21=Confederate Railroad - Sound bites
TTITLE22=Confederate Railroad - Sound bites
TTITLE23=Confederate Railroad - Sound bites
EXTD=
EXTT0=
EXTT1=
EXTT2=
EXTT3=
EXTT4=
EXTT5=
EXTT6=
EXTT7=
EXTT8=
EXTT9=
EXTT10=
EXTT11=
EXTT12=
EXTT13=
EXTT14=
EXTT15=
EXTT16=
EXTT17=
EXTT18=
EXTT19=
EXTT20=
EXTT21=
EXTT22=
EXTT23=
PLAYORDER=
